<?xml version="1.0" encoding="UTF-8"?>
<svg enable-background="new" viewBox="0 0 146.53055 330.95569" xmlns="http://www.w3.org/2000/svg" xmlns:xlink="http://www.w3.org/1999/xlink">
 <defs>
  <filter id="i" x="-.10673" y="-.13163" width="1.2134" height="1.2633">
   <feGaussianBlur stdDeviation="8.85901"/>
  </filter>
  <linearGradient id="b">
   <stop stop-color="#006fcc" offset="0"/>
   <stop stop-color="#059dff" offset=".14621"/>
   <stop stop-color="#0065a7" offset=".39162"/>
   <stop stop-color="#001c44" offset="1"/>
  </linearGradient>
  <linearGradient id="a">
   <stop stop-color="#bfdce8" offset="0"/>
   <stop stop-color="#0093d9" offset=".74887"/>
   <stop stop-color="#004364" offset="1"/>
  </linearGradient>
  <linearGradient id="c" x1="8.1167" x2="14.127" gradientUnits="userSpaceOnUse">
   <stop stop-color="#c9cac7" offset="0"/>
   <stop stop-color="#8b8b88" offset=".5"/>
   <stop stop-color="#e3e3e2" offset="1"/>
  </linearGradient>
  <linearGradient id="h" x1="11.304" x2="87.957" y1="238.68" y2="236.68" gradientTransform="matrix(.67726 0 0 -.67726 4.7778 197.7)" gradientUnits="userSpaceOnUse" xlink:href="#a"/>
  <linearGradient id="g" x1="52.817" x2="57.257" gradientUnits="userSpaceOnUse" xlink:href="#a"/>
  <linearGradient id="f" x1="78.099" x2="43.832" gradientUnits="userSpaceOnUse" xlink:href="#b"/>
  <linearGradient id="e" x1="74.149" x2="81.214" gradientUnits="userSpaceOnUse" xlink:href="#a"/>
  <linearGradient id="d" x1="183.22" x2="-10.995" y1="212.75" y2="216.74" gradientTransform="matrix(.50033 0 0 -.67813 23.244 197.87)" gradientUnits="userSpaceOnUse" xlink:href="#b"/>
 </defs>
 <g transform="matrix(.67726 0 0 .237 3.82 179.56)" fill="#d3d7cf" filter="url(#i)">
  <path d="m176.95 532.96c-7.9232-4.1509-8.0641-5.7766-16.342-10.074-5.9091-3.0675-15.055-6.7595-16.266-8.382l22.467-34.908c1.2119 1.6225 10.357 5.3144 16.266 8.382 9.4609 4.9113 8.2899 6.329 20.262 12.022l-22.467 34.908c-1.4965-0.71162-2.7879-1.3549-3.9198-1.9479z" fill-rule="evenodd"/>
  <path d="m144.39576,514.50755c-.62394-.66387-.799-1.04268-.67813-1.23047l22.43805-34.86267c.47313-.73509 5.57433,1.49101 6.97711,1.36901l.30852-.47936c.05637.12588.07323.22572.04774.2996l-.04909.07626-22.38897,34.78641c-.23819.69023-3.78029-.71858-5.8629-1.18986l-.79233,1.23108z" fill-rule="evenodd"/>
  <path d="m133.55 506.12c-4.5096-2.261-8.8509-4.9647-8.5735-5.5749l22.438-34.863c-0.44396 0.97624 10.927 7.2976 15.921 8.6107 5.0499 1.3278 9.3282 3.2679 10.11 5.0144l-22.438 34.863c-0.78203-1.7465-5.0603-3.6866-10.11-5.0144-1.8728-0.49243-4.6419-1.6793-7.3476-3.0359z" fill-rule="evenodd"/>
  <path d="m124.98 500.54c1.1546-1.7939 8.6487 2.7157 9.4089 1.5347l22.438-34.863c-0.76016 1.1811-8.2543-3.3285-9.4089-1.5347l-22.438 34.863z" fill-rule="evenodd"/>
  <path d="m134.39 502.07c0.63772-0.99083 0.47981-1.8159-9.628-7.2587-0.30074-0.16194-24.904-13.106-35.252-18.402l22.438-34.863c10.348 5.2954 34.952 18.24 35.252 18.402 10.108 5.4428 10.266 6.2678 9.628 7.2587l-22.438 34.863z" fill-rule="evenodd"/>
  <path transform="matrix(.89021,.45555,-.54121,.84089,0,0)" d="m327.52 343.74h8.6728v187.39h-8.6728z"/>
 </g>
 <path d="m110.82 101c-8.3892-0.14077-9.3293-2.4112-18.074-2.5006-6.2423-0.06382-15.365 1.38-17.152-0.08477v-67.813c1.7865 1.4648 10.91 0.02095 17.152 0.08477 9.9944 0.1022 9.7896 3.0496 22.171 2.4158v67.813c-1.5477 0.07922-2.898 0.10488-4.0965 0.08475z" fill="url(#d)" fill-rule="evenodd"/>
 <path d="m75.636 98.375c-0.83238-0.50357-1.1641-0.92625-1.1641-1.291v-67.726c0-1.4281 5.1738-1.9897 6.2224-3.217v-0.93123c0.10878 0.1418 0.17302 0.2751 0.19047 0.40213v67.726c0.16317 1.1868-3.3595 1.7769-5.2488 2.6456v2.3916z" fill="url(#e)" fill-rule="evenodd"/>
 <path d="m62.768 94.227c-4.7231 0.06827-9.5386-0.63632-9.6298-1.7355v-67.726c0.14599 1.7586 12.371 2.493 16.995 0.67727 4.6753-1.836 9.0517-2.2002 10.561-0.23281v67.726c-1.5093-1.9674-5.8857-1.6032-10.561 0.23281-1.7339 0.68091-4.5314 1.0172-7.3652 1.0582z" fill="url(#f)" fill-rule="evenodd"/>
 <path d="m53.141 92.481c0-3.4848 8.2323-2.499 8.2323-4.7934v-67.726c0 2.2944-8.2323 1.3086-8.2323 4.7934v67.726z" fill="url(#g)" fill-rule="evenodd"/>
 <path d="m61.371 87.687c0-1.9248-0.54552-3.0125-11.323-3.4075-0.32066-0.01176-26.399-0.52912-37.292-0.52912v-67.726c10.893 0 36.971 0.51736 37.292 0.52912 10.777 0.39499 11.323 1.4826 11.323 3.4075v67.726z" fill="url(#h)" fill-rule="evenodd"/>
 <path d="m6 16h8.1268v306.11h-8.1268z" fill="url(#c)"/>
</svg>
